<svg xmlns="http://www.w3.org/2000/svg" xmlns:xlink="http://www.w3.org/1999/xlink" width="789" height="536" viewBox="0 0 789 536">
  <defs>
    <style>
      .cls-1, .cls-3 {
        fill: #c68787;
      }

      .cls-1 {
        filter: url(#filter);
      }

      .cls-2 {
        fill: #0b1b34;
        filter: url(#filter-2);
      }

      .cls-3 {
        filter: url(#filter-3);
      }

      .cls-4, .cls-7 {
        fill: #98262b;
      }

      .cls-4, .cls-5, .cls-6, .cls-7 {
        fill-rule: evenodd;
      }

      .cls-4, .cls-5 {
        opacity: 0.5;
      }

      .cls-5, .cls-6 {
        fill: none;
        stroke: #98262b;
        stroke-width: 3px;
      }

      .cls-6, .cls-7 {
        opacity: 0.2;
      }
    </style>
    <filter id="filter" x="0" y="50" width="526" height="446" filterUnits="userSpaceOnUse">
      <feOffset result="offset" dx="-4.243" dy="4.243" in="SourceAlpha"/>
      <feGaussianBlur result="blur" stdDeviation="4"/>
      <feFlood result="flood" flood-color="#101820" flood-opacity="0.45"/>
      <feComposite result="composite" operator="in" in2="blur"/>
      <feBlend result="blend" in="SourceGraphic"/>
    </filter>
    <filter id="filter-2" x="52" y="90" width="526" height="446" filterUnits="userSpaceOnUse">
      <feOffset result="offset" dx="-4.243" dy="4.243" in="SourceAlpha"/>
      <feGaussianBlur result="blur" stdDeviation="4"/>
      <feFlood result="flood" flood-color="#101820" flood-opacity="0.45"/>
      <feComposite result="composite" operator="in" in2="blur"/>
      <feBlend result="blend" in="SourceGraphic"/>
    </filter>
    <filter id="filter-3" x="110" y="0" width="526" height="446" filterUnits="userSpaceOnUse">
      <feOffset result="offset" dx="-4.243" dy="4.243" in="SourceAlpha"/>
      <feGaussianBlur result="blur" stdDeviation="4"/>
      <feFlood result="flood" flood-color="#101820" flood-opacity="0.45"/>
      <feComposite result="composite" operator="in" in2="blur"/>
      <feBlend result="blend" in="SourceGraphic"/>
    </filter>
  </defs>
  <rect id="Rounded_Rectangle_4_copy_2" data-name="Rounded Rectangle 4 copy 2" class="cls-1" x="21" y="63" width="491" height="411" rx="50" ry="50"/>
  <rect id="Rounded_Rectangle_4_copy_3" data-name="Rounded Rectangle 4 copy 3" class="cls-2" x="73" y="103" width="491" height="411" rx="50" ry="50"/>
  <rect id="Rounded_Rectangle_4_copy_5" data-name="Rounded Rectangle 4 copy 5" class="cls-3" x="131" y="13" width="491" height="411" rx="50" ry="50"/>
  <g>
    <g>
      <path id="_01" data-name="01" class="cls-4" d="M780.936,133.081H762.47l-15.16,10.341v15.889l14.263-9.777h0.9v47.713h18.466V133.081Z" transform="translate(0 -12)"/>
      <path id="_01_copy" data-name="01 copy" class="cls-5" d="M704.924,150.967q2.055-4.347,5.88-4.348,3.777,0,5.88,4.372t2.1,12.41v3.385q0,8.037-2.1,12.5t-5.88,4.465q-3.779,0-5.856-4.442t-2.078-12.527V163.4Q702.87,155.318,704.924,150.967Zm-13.648,38.9q7.107,8.508,19.292,8.508t19.552-8.649q7.366-8.649,7.367-22.893v-3.479q0-14.573-7.084-22.963T710.993,132q-12.28,0-19.552,8.533t-7.273,22.822v3.479Q684.168,181.358,691.276,189.867Z" transform="translate(0 -12)"/>
    </g>
    <g>
      <path id="_01_copy_4" data-name="01 copy 4" class="cls-6" d="M697.756,266.677q2.055-4.349,5.88-4.349,3.777,0,5.88,4.372t2.1,12.41V282.5q0,8.037-2.1,12.5t-5.88,4.466q-3.779,0-5.856-4.442T695.7,282.5V279.11Q695.7,271.027,697.756,266.677Zm-13.648,38.9q7.107,8.508,19.292,8.508t19.552-8.649q7.367-8.649,7.367-22.893v-3.479q0-14.571-7.084-22.964t-19.41-8.39q-12.281,0-19.552,8.532T677,279.063v3.479Q677,297.068,684.108,305.576Z" transform="translate(0 -12)"/>
      <path id="_02_copy" data-name="02 copy" class="cls-7" d="M756.9,269.916c-0.016-.31-0.023-0.543-0.023-0.7a6.519,6.519,0,0,1,1.818-4.63,6.178,6.178,0,0,1,4.709-1.931,6.552,6.552,0,0,1,4.756,1.861,5.912,5.912,0,0,1,1.911,4.374,9.2,9.2,0,0,1-.536,3.094,10.731,10.731,0,0,1-1.725,3.025q-1.188,1.512-2.075,2.466t-2.517,2.535l-22.332,21.916v11.259H789V298.9H765.549v-0.7l10.956-11.027,1.865-1.861q1.4-1.395,2.028-2.047t1.865-2.048a22.171,22.171,0,0,0,1.865-2.35q0.628-.952,1.515-2.489a15.989,15.989,0,0,0,1.329-2.861,23.434,23.434,0,0,0,.769-3.071,19.114,19.114,0,0,0,.327-3.513q0-7.909-6.691-13.121t-17.6-5.211a29.861,29.861,0,0,0-10.886,1.86,19.645,19.645,0,0,0-7.553,4.91,21.715,21.715,0,0,0-4.2,6.63,19.865,19.865,0,0,0-1.422,7.4v1.07h17.2Q756.924,270.381,756.9,269.916Z" transform="translate(0 -12)"/>
    </g>
    <g>
      <path id="_01_copy_3" data-name="01 copy 3" class="cls-6" d="M697.756,380.592q2.055-4.349,5.88-4.348,3.777,0,5.88,4.371t2.1,12.411v3.384q0,8.038-2.1,12.5t-5.88,4.466q-3.779,0-5.856-4.443T695.7,396.41v-3.384Q695.7,384.939,697.756,380.592Zm-13.648,38.9Q691.215,428,703.4,428t19.552-8.649q7.367-8.649,7.367-22.893v-3.479q0-14.571-7.084-22.963t-19.41-8.391q-12.281,0-19.552,8.532T677,392.978v3.479Q677,410.983,684.108,419.491Z" transform="translate(0 -12)"/>
      <path id="_03" data-name="03" class="cls-7" d="M762.541,400.346a8.461,8.461,0,0,1,5.927,1.944,6.225,6.225,0,0,1,2.126,4.779,5.877,5.877,0,0,1-2.262,4.8,9.06,9.06,0,0,1-5.882,1.829,9.636,9.636,0,0,1-5.972-1.806,5.689,5.689,0,0,1-2.443-4.643H737.928a18.072,18.072,0,0,0,1.583,7.5,19.568,19.568,0,0,0,4.57,6.312,21.167,21.167,0,0,0,7.76,4.414,33.41,33.41,0,0,0,10.79,1.624,40.665,40.665,0,0,0,7.534-.686,30.336,30.336,0,0,0,6.922-2.173,22.858,22.858,0,0,0,5.723-3.636,15.406,15.406,0,0,0,3.869-5.305,16.821,16.821,0,0,0,1.425-7,16.31,16.31,0,0,0-1.154-6.243,12.453,12.453,0,0,0-3.054-4.551,15.032,15.032,0,0,0-4.162-2.721,14.407,14.407,0,0,0-4.66-1.167v-0.914a11.87,11.87,0,0,0,3.619-1.121,16.969,16.969,0,0,0,3.688-2.47,11.667,11.667,0,0,0,2.986-4.162,13.924,13.924,0,0,0,1.153-5.74,14.416,14.416,0,0,0-6.334-12.1q-6.289-4.6-17.012-4.6-11.311.046-17.8,5.259t-6.81,14.454H754.9a6.419,6.419,0,0,1,2.1-4.643,7.4,7.4,0,0,1,5.362-1.99,7.6,7.6,0,0,1,4.977,1.67,5.417,5.417,0,0,1,2.081,4.276,5.329,5.329,0,0,1-1.968,4.209,7.669,7.669,0,0,1-5.181,1.692h-6.741v12.9h7.013Z" transform="translate(0 -12)"/>
    </g>
  </g>
</svg>
