<svg id="Layer_1" data-name="Layer 1" xmlns="http://www.w3.org/2000/svg" viewBox="0 0 384 384"><defs><style>.cls-1{fill:#fefefe;}.cls-2{fill:#c68787;}.cls-3{fill:#e2c3c3;}</style></defs><path class="cls-1" d="M1151.47,454.63q0,94.25.07,188.5c0,2.47-.36,3.12-3,3.12q-188.89-.13-377.8,0c-2.83,0-3.19-.74-3.19-3.31q.11-188.69,0-377.38c0-2.58.38-3.31,3.2-3.31q188.7.15,377.42,0c2.91,0,3.38.77,3.38,3.49Q1151.42,360.19,1151.47,454.63ZM769.22,593l.24,1.65c1.75,7.11,6.58,11,13.93,11.07,7.11,0,14.21-.06,21.32-.06h255.81c7.11,0,14.21.13,21.32.05,7.69-.09,13.15-5,14.26-12.63a22,22,0,0,1,.62-2.9q22.69-79.87,45.38-159.74c2.44-8.6,5.45-17.05,7-25.9.52-8.13-5-14.16-13.09-14.2-13.28-.07-26.57,0-39.85-.05q-.09-22.08-.17-44.15a19.23,19.23,0,0,0-.21-6.68c-1.86-6.69-7.18-10.42-15-10.42q-79.3,0-158.61,0c-8.44,0-13.79-4.77-14.6-12.8-1-9.77-5.8-14.17-15.55-14.17H785.4c-11.62,0-16.82,5.53-16.18,17.15,0,1.25-.12,2.49-.12,3.74q0,132.78,0,265.58C769.11,590,769.18,591.49,769.22,593Z" transform="translate(-767.54 -262.25)"/><path class="cls-2" d="M1149.07,404.52c-1.52,8.85-4.53,17.3-7,25.9q-22.59,79.89-45.38,159.74a22,22,0,0,0-.62,2.9c-1.11,7.6-6.57,12.54-14.26,12.63-7.11.08-14.21-.05-21.32-.05H804.71c-7.11,0-14.21.11-21.32.06-7.35-.05-12.18-4-13.93-11.07,1-.35,1-1.27,1.22-2.11q11.63-41,23.28-82t23.37-82c2.13-7.46,7.37-11.35,15.1-11.35q82.29,0,164.58,0c7.84,0,11.85-2.74,14.74-10.05,3-7.66,7.78-10.9,16-10.9,33.54,0,67.08.11,100.62-.09,8.12,0,15.74.11,20.36,8.25C1148.76,404.51,1149,404.49,1149.07,404.52Z" transform="translate(-767.54 -262.25)"/><path class="cls-2" d="M1096,346.12q.07,22.08.17,44.15h-31.51c0-12.71-.14-25.42.16-38.13.09-3.89-1.06-4.62-4.73-4.62q-127.51.17-255,.08a14.57,14.57,0,0,1-1.87,0c-2.14-.27-2.75.65-2.75,2.75q.12,64.86.12,129.74c-1.31,5.62-2.84,11.19-4.37,16.76-8.86,32.08-18.64,63.91-26.94,96.15,0-1.49-.11-3-.11-4.48q0-132.79,0-265.58c0-1.25.08-2.49.12-3.74a12.74,12.74,0,0,0,1-1.54c2.67-5.58,6.76-8.29,13.26-8.26,37.15.18,74.31.08,111.46.1,6.45,0,12.68,5.49,12.46,11.9-.29,8.49,6.6,15.18,16,15.14,53-.23,106-.09,158.95-.16a14,14,0,0,1,9.75,3.86C1094,341.87,1094.43,344.32,1096,346.12Z" transform="translate(-767.54 -262.25)"/><path class="cls-3" d="M1096,346.12c-1.53-1.8-2-4.25-3.85-5.9a14,14,0,0,0-9.75-3.86c-53,.07-106-.07-158.95.16-9.4,0-16.29-6.65-16-15.14.22-6.41-6-11.9-12.46-11.9-37.15,0-74.31.08-111.46-.1-6.5,0-10.59,2.68-13.26,8.26a12.74,12.74,0,0,1-1,1.54c-.64-11.62,4.56-17.14,16.18-17.15H892c9.75,0,14.56,4.4,15.55,14.17.81,8,6.16,12.79,14.6,12.8q79.3,0,158.61,0c7.79,0,13.11,3.73,15,10.42A19.23,19.23,0,0,1,1096,346.12Z" transform="translate(-767.54 -262.25)"/><path class="cls-3" d="M769.22,593c8.3-32.24,18.08-64.07,26.94-96.15,1.53-5.57,3.06-11.14,4.37-16.76.61-.36.63-1,.8-1.59q7.8-27.37,15.64-54.74c2.62-9.13,7.25-12.51,16.83-12.51h163c7.81,0,12.4-3.16,15.06-10.33s7.6-10.59,15.36-10.6l37.39,0h31.51c13.28,0,26.57,0,39.85.05,8.13,0,13.61,6.07,13.09,14.2-.12,0-.31,0-.35-.09-4.62-8.14-12.24-8.29-20.36-8.25-33.54.2-67.08.09-100.62.09-8.21,0-13,3.24-16,10.9-2.89,7.31-6.9,10.05-14.74,10.05q-82.29,0-164.58,0c-7.73,0-13,3.89-15.1,11.35q-11.72,41-23.37,82t-23.28,82c-.23.84-.19,1.76-1.22,2.11Z" transform="translate(-767.54 -262.25)"/><path class="cls-1" d="M1064.62,390.26l-37.39,0c-7.76,0-12.69,3.42-15.36,10.6s-7.25,10.33-15.06,10.33h-163c-9.58,0-14.21,3.38-16.83,12.51q-7.89,27.35-15.64,54.74c-.17.59-.19,1.23-.8,1.59q0-64.87-.12-129.74c0-2.1.61-3,2.75-2.75a14.57,14.57,0,0,0,1.87,0q127.5,0,255-.08c3.67,0,4.82.73,4.73,4.62C1064.48,364.84,1064.64,377.55,1064.62,390.26Z" transform="translate(-767.54 -262.25)"/></svg>