<?xml version="1.0" standalone="no"?>
<!DOCTYPE svg PUBLIC "-//W3C//DTD SVG 20010904//EN"
 "http://www.w3.org/TR/2001/REC-SVG-20010904/DTD/svg10.dtd">
<svg version="1.0" xmlns="http://www.w3.org/2000/svg"
 width="512.000000pt" height="512.000000pt" viewBox="0 0 512.000000 512.000000"
 preserveAspectRatio="xMidYMid meet">

<g transform="translate(0.000000,512.000000) scale(0.100000,-0.100000)"
fill="#000000" stroke="none">
<path d="M2715 5108 c-52 -28 -55 -39 -55 -258 0 -266 3 -270 179 -270 l101 0
0 -180 0 -180 -72 0 c-98 0 -140 -13 -177 -56 -31 -35 -31 -35 -31 -154 l0
-120 -43 0 c-53 0 -160 -30 -212 -61 -115 -66 -199 -170 -238 -293 l-22 -71 0
-863 0 -864 28 -24 c35 -30 59 -30 94 0 l28 24 5 879 5 878 25 49 c35 69 100
133 168 164 l57 27 725 0 725 0 56 -26 c69 -33 129 -91 166 -161 l28 -53 3
-1598 c2 -1557 2 -1598 -17 -1635 -24 -47 -56 -77 -103 -97 -31 -12 -91 -15
-353 -15 -365 0 -374 -2 -375 -77 0 -35 20 -60 54 -69 12 -3 171 -4 352 -2
l329 3 63 29 c79 37 152 114 181 191 21 56 21 62 21 1654 0 1573 0 1600 -20
1664 -36 116 -122 221 -235 286 -52 31 -159 61 -212 61 l-43 0 0 113 c0 93 -3
117 -20 144 -32 54 -63 67 -166 71 l-94 4 0 179 0 179 459 0 459 0 31 25 c62
53 60 137 -5 182 -55 38 -319 187 -393 220 -97 44 -222 80 -341 98 -121 19
-1082 21 -1115 3z m1160 -162 c152 -36 258 -80 420 -175 l70 -41 -777 0 -778
0 0 121 0 120 498 -4 c417 -4 508 -7 567 -21z m-405 -546 l0 -180 -190 0 -190
0 0 180 0 180 190 0 190 0 0 -180z m280 -420 l0 -90 -470 0 -470 0 0 90 0 90
470 0 470 0 0 -90z"/>
<path d="M995 4400 c-11 -4 -31 -18 -44 -30 -48 -46 -51 -68 -51 -389 l0 -299
-36 -7 c-85 -15 -114 -59 -114 -170 0 -63 -3 -77 -17 -81 -98 -31 -165 -84
-199 -159 -42 -89 -23 -165 42 -165 42 0 60 16 84 75 14 34 34 64 54 78 31 22
32 22 536 25 352 2 512 -1 531 -8 15 -6 40 -25 55 -41 l29 -30 3 -285 3 -284
-611 0 -610 0 0 145 c0 132 -2 147 -20 165 -25 25 -71 26 -101 1 l-24 -19 0
-1349 0 -1348 23 -51 c44 -98 138 -163 245 -171 53 -4 66 -2 90 17 59 47 19
130 -62 130 -46 0 -99 27 -125 63 -21 28 -21 39 -24 708 l-3 679 611 0 c594 0
610 -1 610 -19 0 -18 -12 -19 -247 -23 -220 -4 -254 -7 -303 -25 -204 -77
-337 -241 -360 -443 -14 -117 -13 -767 1 -846 19 -110 91 -193 198 -229 42
-14 156 -15 1012 -13 956 3 964 3 1010 24 63 29 110 74 139 131 l25 48 3 445
c2 317 0 461 -9 500 -28 131 -132 270 -253 338 -119 68 -158 72 -637 72 l-429
0 -2 833 -3 832 -31 55 c-36 64 -99 116 -160 132 l-44 12 0 74 c0 106 -37 163
-115 178 l-34 6 -3 306 c-3 289 -4 309 -24 342 -11 19 -35 45 -54 57 -32 22
-40 23 -284 22 -138 0 -260 -4 -271 -9z m483 -432 l2 -288 -215 0 -215 0 0
290 0 290 213 -2 212 -3 3 -287z m152 -488 l0 -50 -365 0 -365 0 0 50 0 50
365 0 365 0 0 -50z m240 -1365 l0 -365 -610 0 -610 0 0 365 0 365 610 0 610 0
0 -365z m1025 -716 c170 -31 295 -170 304 -336 l3 -73 -1045 0 c-623 0 -1048
4 -1051 9 -11 17 12 141 37 193 28 62 101 139 161 170 85 45 115 46 842 47
459 1 710 -3 749 -10z m305 -856 c0 -274 -2 -300 -19 -329 -41 -67 12 -64
-1028 -64 -1048 0 -984 -4 -1028 70 -19 33 -20 55 -23 328 l-3 292 1050 0
1051 0 0 -297z"/>
<path d="M1216 4109 c-52 -41 -24 -129 42 -131 59 -2 95 57 68 111 -24 46 -67
54 -110 20z"/>
<path d="M3131 2775 c-163 -46 -298 -158 -369 -306 -22 -46 -45 -108 -51 -137
-15 -70 -15 -576 0 -603 25 -48 105 -44 128 7 7 16 11 111 11 277 0 274 7 323
55 409 140 251 484 294 685 87 51 -52 86 -117 106 -192 13 -49 15 -118 12
-401 l-3 -342 -37 -75 c-24 -49 -56 -92 -89 -125 -29 -27 -68 -64 -87 -82 -28
-26 -33 -37 -28 -60 9 -35 41 -62 76 -62 38 0 145 85 199 157 58 78 79 121
102 210 17 68 19 112 19 403 0 188 -5 351 -11 386 -6 32 -28 95 -49 139 -67
138 -167 231 -315 290 -60 24 -87 29 -185 32 -81 2 -131 -2 -169 -12z"/>
</g>
</svg>
