<?xml version="1.0" encoding="utf-8"?>
<!-- Generator: Adobe Illustrator 24.1.1, SVG Export Plug-In . SVG Version: 6.00 Build 0)  -->
<svg version="1.1" xmlns="http://www.w3.org/2000/svg" xmlns:xlink="http://www.w3.org/1999/xlink" x="0px" y="0px"
	 viewBox="0 0 1250 750" style="enable-background:new 0 0 1250 750;" xml:space="preserve">
<style type="text/css">
	.st0{fill:#FFFFFF;}
	.st1{fill:#C68787;}
	.st2{fill:#2F2F2F;}
	.st3{fill:#F9F9F9;}
</style>
<g id="Bg">
	<rect class="st0" width="1250" height="750"/>
</g>
<g id="Object">
	<g>
		<g id="XMLID_131_">
			<path class="st1" d="M1171.12,360.7H1064l0,0h-55.52c-7.07,0-12.8-5.73-12.8-12.8c0-7.07,5.73-12.8,12.8-12.8H1064h51.99
				c11.56,0,20.94-9.37,20.94-20.94v0c0-11.56-9.37-20.94-20.94-20.94h-71.8H823.84H264.9c-10.94,0-19.81,8.87-19.81,19.81V446.3
				c0,10.94,8.87,19.81,19.81,19.81h560.95c1.91,0.57,3.93-0.1,6.02-0.1h292.15c11.56,0,20.94-8.39,20.94-19.95l0,0
				c0-11.56-9.37-20.94-20.94-20.94h-85.54c-2.76-2.35-4.52-5.84-4.52-9.75c0-7.07,5.73-12.8,12.79-12.8h124.36
				c11.56,0,20.94-9.37,20.94-20.94l0,0C1192.05,370.08,1182.68,360.7,1171.12,360.7z"/>
		</g>
		<g id="XMLID_129_">
			<g id="XMLID_68_">
				<path class="st1" d="M461.6,114.77c-0.85,0-1.7-0.32-2.35-0.97c-1.3-1.3-1.3-3.41,0-4.71l23.85-23.85c1.3-1.3,3.41-1.3,4.71,0
					c1.3,1.3,1.3,3.41,0,4.71l-23.85,23.85C463.31,114.45,462.45,114.77,461.6,114.77z"/>
			</g>
			<g id="XMLID_67_">
				<path class="st1" d="M485.45,114.77c-0.85,0-1.7-0.32-2.35-0.97l-23.85-23.85c-1.3-1.3-1.3-3.41,0-4.71c1.3-1.3,3.41-1.3,4.71,0
					l23.85,23.85c1.3,1.3,1.3,3.41,0,4.71C487.15,114.45,486.3,114.77,485.45,114.77z"/>
			</g>
		</g>
		<g id="XMLID_130_">
			<g id="XMLID_66_">
				<path class="st1" d="M789.63,569.44c-0.85,0-1.7-0.32-2.35-0.97c-1.3-1.3-1.3-3.41,0-4.71l23.85-23.85c1.3-1.3,3.41-1.3,4.71,0
					c1.3,1.3,1.3,3.41,0,4.71l-23.85,23.85C791.33,569.12,790.48,569.44,789.63,569.44z"/>
			</g>
			<g id="XMLID_65_">
				<path class="st1" d="M813.48,569.44c-0.85,0-1.7-0.32-2.35-0.97l-23.85-23.85c-1.3-1.3-1.3-3.41,0-4.71c1.3-1.3,3.41-1.3,4.71,0
					l23.85,23.85c1.3,1.3,1.3,3.41,0,4.71C815.18,569.12,814.33,569.44,813.48,569.44z"/>
			</g>
		</g>
		<g id="XMLID_62_">
			<path class="st1" d="M671.99,211.55c-8.92,0-16.18-7.26-16.18-16.18c0-8.92,7.26-16.18,16.18-16.18s16.18,7.26,16.18,16.18
				C688.17,204.29,680.91,211.55,671.99,211.55z M671.99,185.85c-5.25,0-9.52,4.27-9.52,9.52s4.27,9.52,9.52,9.52
				s9.52-4.27,9.52-9.52S677.24,185.85,671.99,185.85z"/>
		</g>
		<g id="XMLID_135_">
			<g id="XMLID_61_">
				<path class="st1" d="M1055.41,154.5c-0.85,0-1.7-0.32-2.35-0.97c-1.3-1.3-1.3-3.41,0-4.71l23.85-23.85c1.3-1.3,3.41-1.3,4.71,0
					c1.3,1.3,1.3,3.41,0,4.71l-23.85,23.85C1057.12,154.18,1056.27,154.5,1055.41,154.5z"/>
			</g>
			<g id="XMLID_60_">
				<path class="st1" d="M1079.26,154.5c-0.85,0-1.7-0.32-2.35-0.97l-23.85-23.85c-1.3-1.3-1.3-3.41,0-4.71c1.3-1.3,3.41-1.3,4.71,0
					l23.85,23.85c1.3,1.3,1.3,3.41,0,4.71C1080.96,154.18,1080.11,154.5,1079.26,154.5z"/>
			</g>
		</g>
		<g id="XMLID_55_">
			<path class="st1" d="M1111.65,607.85c-6.24,0-11.31-5.08-11.31-11.31s5.08-11.31,11.31-11.31s11.31,5.08,11.31,11.31
				S1117.89,607.85,1111.65,607.85z M1111.65,589.88c-3.67,0-6.66,2.99-6.66,6.66c0,3.67,2.99,6.66,6.66,6.66
				c3.67,0,6.66-2.99,6.66-6.66C1118.31,592.86,1115.32,589.88,1111.65,589.88z"/>
		</g>
		<g id="XMLID_52_">
			<path class="st1" d="M498.23,621.7c-8.92,0-16.18-7.26-16.18-16.18c0-8.92,7.26-16.18,16.18-16.18s16.18,7.26,16.18,16.18
				C514.4,614.44,507.15,621.7,498.23,621.7z M498.23,596c-5.25,0-9.52,4.27-9.52,9.52c0,5.25,4.27,9.52,9.52,9.52
				c5.25,0,9.52-4.27,9.52-9.52C507.75,600.27,503.48,596,498.23,596z"/>
		</g>
		<g id="XMLID_51_">
			<path class="st1" d="M1001.79,527.07H940.6c-1.84,0-3.33-1.49-3.33-3.33s1.49-3.33,3.33-3.33h61.18c1.84,0,3.33,1.49,3.33,3.33
				S1003.63,527.07,1001.79,527.07z"/>
		</g>
		<g id="XMLID_50_">
			<path class="st1" d="M789.69,195.5h-69.81c-1.84,0-3.33-0.77-3.33-1.73s1.49-1.73,3.33-1.73h69.81c1.84,0,3.33,0.77,3.33,1.73
				S791.53,195.5,789.69,195.5z"/>
		</g>
		<g id="XMLID_49_">
			<path class="st1" d="M595.47,608.85h-56.95c-1.84,0-3.33-1.49-3.33-3.33c0-1.84,1.49-3.33,3.33-3.33h56.95
				c1.84,0,3.33,1.49,3.33,3.33C598.8,607.36,597.31,608.85,595.47,608.85z"/>
		</g>
		<g id="XMLID_46_">
			<path class="st1" d="M187.92,138.64c-6.24,0-11.31-5.08-11.31-11.31c0-6.24,5.08-11.31,11.31-11.31
				c6.24,0,11.31,5.08,11.31,11.31C199.23,133.57,194.16,138.64,187.92,138.64z M187.92,120.67c-3.67,0-6.66,2.99-6.66,6.66
				c0,3.67,2.99,6.66,6.66,6.66c3.67,0,6.66-2.99,6.66-6.66C194.58,123.66,191.59,120.67,187.92,120.67z"/>
		</g>
		<g id="XMLID_492_">
			<g id="XMLID_497_">
				<polygon class="st1" points="151.2,157.55 239.13,357.67 435.2,330.76 				"/>
				<path class="st2" d="M239.13,360.46c-1.09,0-2.1-0.64-2.55-1.67l-87.93-200.12c-0.49-1.11-0.2-2.42,0.72-3.22
					c0.92-0.8,2.25-0.92,3.29-0.28l284,173.21c1.01,0.61,1.52,1.79,1.28,2.95c-0.24,1.15-1.18,2.03-2.35,2.19l-196.07,26.91
					C239.38,360.45,239.25,360.46,239.13,360.46z M157.32,164.55l83.51,190.07l186.22-25.56L157.32,164.55z"/>
			</g>
			<g id="XMLID_496_">
				<polygon class="st1" points="198.33,495.5 239.86,357.57 435.93,330.66 				"/>
				<path class="st2" d="M198.33,498.29c-0.58,0-1.15-0.18-1.64-0.53c-0.96-0.7-1.37-1.92-1.03-3.06l41.53-137.93
					c0.31-1.04,1.21-1.81,2.29-1.96l196.07-26.91c1.27-0.17,2.51,0.55,2.98,1.75c0.47,1.2,0.05,2.57-1.01,3.3L199.92,497.8
					C199.44,498.13,198.89,498.29,198.33,498.29z M242.01,360.09L203.3,488.66L424.77,335L242.01,360.09z"/>
			</g>
			<g id="XMLID_495_">
				<polygon class="st1" points="435.74,330 461.17,198.58 330.85,266.61 				"/>
				<path class="st2" d="M435.74,332.93c-0.53,0-1.05-0.14-1.52-0.42l-104.89-63.39c-0.91-0.55-1.45-1.54-1.41-2.6
					c0.03-1.06,0.63-2.02,1.57-2.51l130.31-68.03c1-0.52,2.21-0.42,3.11,0.25c0.9,0.67,1.34,1.8,1.13,2.91l-25.43,131.42
					c-0.18,0.94-0.81,1.73-1.69,2.12C436.55,332.85,436.14,332.93,435.74,332.93z M336.83,266.79l96.83,58.52l23.47-121.33
					L336.83,266.79z"/>
			</g>
			<g id="XMLID_494_">
				<polygon class="st1" points="461.17,198.58 507.2,243.9 450.9,251.63 				"/>
				<path class="st2" d="M450.9,254.56c-0.8,0-1.57-0.33-2.13-0.92c-0.65-0.69-0.93-1.64-0.75-2.57l10.26-53.05
					c0.21-1.06,0.98-1.92,2.01-2.24c1.03-0.32,2.16-0.05,2.93,0.71l46.03,45.32c0.8,0.78,1.08,1.95,0.73,3.01
					c-0.35,1.06-1.28,1.83-2.38,1.98l-56.3,7.73C451.17,254.55,451.04,254.56,450.9,254.56z M463.01,204.5l-8.45,43.66l46.34-6.36
					L463.01,204.5z"/>
			</g>
			<g id="XMLID_493_">
				<polygon class="st1" points="239.86,357.57 60.74,260.49 198.89,266.08 				"/>
				<path class="st2" d="M239.86,360.36c-0.45,0-0.91-0.11-1.33-0.34L59.41,262.95c-1.14-0.62-1.7-1.94-1.36-3.19
					c0.34-1.25,1.5-2.1,2.8-2.05L199,263.3c1.06,0.04,2,0.68,2.43,1.65l40.97,91.49c0.49,1.09,0.23,2.37-0.65,3.18
					C241.23,360.11,240.55,360.36,239.86,360.36z M72.63,263.77l161.33,87.43l-36.9-82.4L72.63,263.77z"/>
			</g>
		</g>
		<g id="XMLID_14_">
			<g id="XMLID_2303_">
				<polygon class="st3" points="168.07,188.7 256,388.81 452.07,361.9 				"/>
				<path class="st2" d="M256,391.6c-1.09,0-2.1-0.64-2.55-1.67l-87.93-200.12c-0.49-1.11-0.2-2.42,0.72-3.22
					c0.92-0.8,2.25-0.92,3.29-0.28l284,173.21c1.01,0.61,1.52,1.79,1.28,2.95c-0.24,1.15-1.18,2.03-2.35,2.19l-196.07,26.91
					C256.25,391.59,256.12,391.6,256,391.6z M174.19,195.7l83.51,190.07l186.22-25.56L174.19,195.7z"/>
			</g>
			<g id="XMLID_2301_">
				<polygon class="st3" points="215.2,526.65 256.73,388.71 452.8,361.8 				"/>
				<path class="st2" d="M215.2,529.43c-0.58,0-1.15-0.18-1.64-0.53c-0.96-0.7-1.37-1.92-1.03-3.06l41.53-137.93
					c0.31-1.04,1.21-1.81,2.29-1.96l196.07-26.91c1.27-0.18,2.51,0.55,2.98,1.75c0.47,1.2,0.05,2.57-1.01,3.3l-237.6,164.85
					C216.31,529.27,215.76,529.43,215.2,529.43z M258.88,391.23L220.17,519.8l221.47-153.66L258.88,391.23z"/>
			</g>
			<g id="XMLID_2307_">
				<polygon class="st3" points="452.61,361.14 478.04,229.72 347.72,297.75 				"/>
				<path class="st2" d="M452.61,364.07c-0.53,0-1.05-0.14-1.52-0.42l-104.89-63.39c-0.91-0.55-1.45-1.54-1.41-2.6
					c0.03-1.06,0.63-2.02,1.57-2.51l130.31-68.03c1-0.52,2.21-0.42,3.11,0.25c0.9,0.67,1.34,1.8,1.13,2.91L455.49,361.7
					c-0.18,0.94-0.81,1.73-1.69,2.12C453.42,363.99,453.01,364.07,452.61,364.07z M353.7,297.94l96.83,58.52L474,235.13
					L353.7,297.94z"/>
			</g>
			<g id="XMLID_2308_">
				<polygon class="st3" points="478.04,229.72 524.07,275.04 467.77,282.77 				"/>
				<path class="st2" d="M467.77,285.7c-0.8,0-1.57-0.33-2.13-0.92c-0.65-0.69-0.93-1.64-0.75-2.57l10.26-53.05
					c0.21-1.06,0.98-1.92,2.01-2.24c1.03-0.32,2.16-0.05,2.93,0.71l46.03,45.32c0.8,0.78,1.08,1.95,0.73,3.01
					c-0.35,1.06-1.28,1.83-2.38,1.98l-56.3,7.73C468.04,285.69,467.91,285.7,467.77,285.7z M479.88,235.65l-8.45,43.66l46.34-6.36
					L479.88,235.65z"/>
			</g>
			<g id="XMLID_2310_">
				<polygon class="st3" points="256.73,388.71 77.61,291.64 215.76,297.23 				"/>
				<path class="st2" d="M256.73,391.5c-0.45,0-0.91-0.11-1.33-0.34L76.28,294.09c-1.14-0.62-1.7-1.94-1.36-3.19
					c0.34-1.25,1.5-2.1,2.8-2.05l138.15,5.59c1.06,0.04,2,0.68,2.43,1.65l40.97,91.49c0.49,1.09,0.23,2.37-0.65,3.18
					C258.1,391.25,257.42,391.5,256.73,391.5z M89.5,294.91l161.33,87.43l-36.9-82.4L89.5,294.91z"/>
			</g>
		</g>
	</g>
	<g>
		<g>
			<g>
				<path class="st0" d="M487.19,384.1c2.64,1.78,6.27,3.1,10.33,3.1c5.46,0.01,10.49-3.26,10.49-9.11c0-3.61-2.03-6.29-7.1-9.07
					c-6.2-3.35-9.66-7.23-9.66-12.45c0-8.69,7.46-14.25,16.39-14.25c4.74,0,8.27,1.38,9.94,2.52l-2.12,4.88
					c-1.53-0.92-4.56-2.31-8.42-2.28c-5.99,0-9.61,3.95-9.62,7.93c0,3.94,2.46,6.18,7.54,9c5.98,3.2,9.26,7.03,9.26,12.99
					c0,8.39-6.59,15-17.51,15c-4.85,0-9.65-1.59-11.67-3.37L487.19,384.1z"/>
				<path class="st0" d="M544.91,389.61c-2.63,1.48-6.84,2.75-11.51,2.75c-9.25,0-13.25-6.3-13.25-14.01
					c0-10.49,7.79-22.36,19-22.36c6.63,0,10.22,3.95,10.23,8.93c0,9.15-10.31,11.55-23.18,11.31c-0.29,1.51-0.09,4.76,0.7,6.63
					c1.4,3.14,4.17,4.68,7.75,4.68c4.14,0,7.25-1.23,9.38-2.39L544.91,389.61z M538.31,360.63c-5.69,0-9.98,5.55-11.44,11
					c9.38,0.11,16.73-1.14,16.73-6.57C543.6,362.2,541.42,360.63,538.31,360.63z"/>
				<path class="st0" d="M552.41,391.6l4.66-24.69c0.77-3.87,1.25-7.25,1.64-10.14h5.36l-0.9,6.84h0.14
					c3.13-4.9,7.82-7.63,12.92-7.63c4.13,0,8.81,2.38,8.81,9.67c0,1.55-0.28,3.76-0.62,5.62l-3.87,20.33h-5.96l3.81-20.12
					c0.24-1.35,0.47-2.97,0.47-4.46c0-3.49-1.35-6.07-5.46-6.07c-4.28,0-10.33,5.1-11.91,13.72l-3.14,16.93H552.41z"/>
				<path class="st0" d="M606.45,347.42l-1.79,9.36h8.32l-0.93,4.67h-8.33l-3.21,16.93c-0.38,1.95-0.69,3.74-0.69,5.56
					c0,2.08,0.99,3.38,3.3,3.38c1.07,0,2.03-0.08,2.81-0.28l-0.29,4.7c-1.06,0.41-2.88,0.63-4.62,0.63c-5.26,0-7.33-3.19-7.33-6.76
					c0-2.03,0.25-4.01,0.76-6.54l3.4-17.62h-4.98l0.9-4.67h5l1.47-7.85L606.45,347.42z"/>
				<path class="st0" d="M627.45,384.1c2.64,1.78,6.27,3.1,10.33,3.1c5.46,0.01,10.49-3.26,10.49-9.11c0-3.61-2.03-6.29-7.1-9.07
					c-6.2-3.35-9.66-7.23-9.66-12.45c0-8.69,7.46-14.25,16.39-14.25c4.74,0,8.27,1.38,9.94,2.52l-2.12,4.88
					c-1.53-0.92-4.56-2.31-8.42-2.28c-5.99,0-9.61,3.95-9.62,7.93c0,3.94,2.46,6.18,7.54,9c5.98,3.2,9.26,7.03,9.26,12.99
					c0,8.39-6.59,15-17.51,15c-4.85,0-9.64-1.59-11.67-3.37L627.45,384.1z"/>
				<path class="st0" d="M694.01,356.78l-4.69,24.69c-0.73,3.87-1.22,7.25-1.56,10.13h-5.39l0.91-6.57l-0.14-0.01
					c-3.1,4.54-7.68,7.38-12.29,7.38c-4.48,0-9.2-2.16-9.2-10.08c0-1.67,0.21-3.55,0.67-5.86l3.76-19.67h5.96l-3.7,19.41
					c-0.37,1.94-0.59,3.61-0.59,5.11c0,3.6,1.48,6.06,5.56,6.06c4.35,0,9.9-5.08,11.34-12.72l3.39-17.86H694.01z"/>
				<path class="st0" d="M721.88,390.22c-1.78,0.88-5.38,2.14-10.12,2.14c-8.96,0-13.39-6.07-13.39-13.47
					c0-11.88,8.84-22.89,21.36-22.89c3.25,0,6.18,0.95,7.24,1.58l-1.71,4.74c-1.38-0.66-3.29-1.31-5.92-1.31
					c-9.04,0-14.76,8.92-14.76,17.13c0,5.66,2.96,9.31,8.67,9.31c3.54,0,6.26-1.09,8.05-1.94L721.88,390.22z"/>
				<path class="st0" d="M752.33,390.22c-1.78,0.88-5.38,2.14-10.12,2.14c-8.96,0-13.39-6.07-13.39-13.47
					c0-11.88,8.84-22.89,21.36-22.89c3.25,0,6.18,0.95,7.24,1.58l-1.71,4.74c-1.38-0.66-3.29-1.31-5.92-1.31
					c-9.04,0-14.76,8.92-14.76,17.13c0,5.66,2.96,9.31,8.67,9.31c3.54,0,6.26-1.09,8.05-1.94L752.33,390.22z"/>
				<path class="st0" d="M783.94,389.61c-2.63,1.48-6.84,2.75-11.51,2.75c-9.25,0-13.25-6.3-13.25-14.01
					c0-10.49,7.79-22.36,19-22.36c6.63,0,10.22,3.95,10.23,8.93c0,9.15-10.3,11.55-23.18,11.31c-0.29,1.51-0.09,4.76,0.7,6.63
					c1.4,3.14,4.17,4.68,7.75,4.68c4.14,0,7.25-1.23,9.38-2.39L783.94,389.61z M777.34,360.63c-5.69,0-9.98,5.55-11.44,11
					c9.38,0.11,16.73-1.14,16.73-6.57C782.64,362.2,780.45,360.63,777.34,360.63z"/>
				<path class="st0" d="M791.73,385.55c1.64,0.98,4.62,2.17,7.49,2.17c4.02-0.01,6.63-2.6,6.63-5.69c0-2.72-1.22-4.42-4.84-6.42
					c-4.03-2.23-6.29-5.31-6.29-8.88c0-6.08,5.28-10.74,12.62-10.74c3.16,0,5.94,0.85,7.25,1.73l-1.68,4.51
					c-1.2-0.7-3.4-1.59-6-1.59c-3.64,0-6.21,2.27-6.21,5.23c0,2.56,1.67,4.11,4.79,5.86c3.88,2.19,6.5,5.24,6.5,9.15
					c0,7.32-5.95,11.48-13.3,11.48c-3.75,0-7.08-1.18-8.66-2.39L791.73,385.55z"/>
				<path class="st0" d="M818.59,385.55c1.64,0.98,4.62,2.17,7.49,2.17c4.02-0.01,6.63-2.6,6.63-5.69c0-2.72-1.22-4.42-4.84-6.42
					c-4.03-2.23-6.29-5.31-6.29-8.88c0-6.08,5.28-10.74,12.62-10.74c3.16,0,5.94,0.85,7.25,1.73l-1.68,4.51
					c-1.2-0.7-3.4-1.59-6-1.59c-3.64,0-6.21,2.27-6.21,5.23c0,2.56,1.67,4.11,4.79,5.86c3.88,2.19,6.5,5.24,6.5,9.15
					c0,7.32-5.95,11.48-13.3,11.48c-3.75,0-7.08-1.18-8.66-2.39L818.59,385.55z"/>
				<path class="st0" d="M845.98,391.6l5.71-30.13h-4.64l0.9-4.69h4.66l0.34-1.86c0.85-4.83,2.58-9.32,5.7-12.15
					c2.21-1.99,5.24-3.08,8.26-3.08c2.4,0,3.97,0.46,4.78,0.93l-1.3,4.78c-0.92-0.44-2.14-0.68-3.5-0.68
					c-4.75,0-7.06,4.63-8.07,10.39l-0.3,1.67h7.77l-0.92,4.69h-7.75l-5.73,30.13H845.98z"/>
				<path class="st0" d="M899.5,356.78l-4.69,24.69c-0.73,3.87-1.22,7.25-1.56,10.13h-5.39l0.91-6.57l-0.14-0.01
					c-3.1,4.54-7.68,7.38-12.29,7.38c-4.48,0-9.2-2.16-9.2-10.08c0-1.67,0.21-3.55,0.67-5.86l3.76-19.67h5.96l-3.7,19.41
					c-0.37,1.94-0.59,3.61-0.59,5.11c0,3.6,1.48,6.06,5.56,6.06c4.35,0,9.9-5.08,11.34-12.72l3.39-17.86H899.5z"/>
				<path class="st0" d="M903.42,391.6l9.75-51.12h5.97l-9.76,51.12H903.42z"/>
				<path class="st0" d="M919.9,391.6l9.75-51.12h5.97l-9.76,51.12H919.9z"/>
				<path class="st0" d="M943.98,356.78l3.45,18.73c0.77,4.01,1.23,6.58,1.58,9.18h0.18c0.92-2.23,1.94-4.67,3.69-8.53l8.92-19.38
					h6.34l-13.08,26.47c-3.73,7.55-7.27,13.66-12,18.33c-3.89,3.92-8.15,5.58-10.13,6.01l-1.46-5.13c1.5-0.52,4.03-1.5,6.38-3.35
					c2.36-1.82,4.87-4.63,6.73-8.04c0.31-0.57,0.28-0.97,0.17-1.58l-6.98-32.7H943.98z"/>
			</g>
		</g>
	</g>
</g>
</svg>
