<?xml version="1.0" standalone="no"?>
<!DOCTYPE svg PUBLIC "-//W3C//DTD SVG 20010904//EN"
 "http://www.w3.org/TR/2001/REC-SVG-20010904/DTD/svg10.dtd">
<svg version="1.0" xmlns="http://www.w3.org/2000/svg"
 width="512.000000pt" height="512.000000pt" viewBox="0 0 512.000000 512.000000"
 preserveAspectRatio="xMidYMid meet">

<g transform="translate(0.000000,512.000000) scale(0.100000,-0.100000)"
fill="#000000" stroke="none">
<path d="M771 3917 c-69 -22 -101 -69 -351 -522 -134 -242 -255 -465 -269
-495 l-26 -55 -5 -392 -5 -392 -34 -23 c-69 -47 -76 -65 -76 -203 0 -109 2
-127 21 -151 42 -57 69 -69 165 -73 l90 -3 36 -72 c25 -51 59 -94 117 -151
132 -131 265 -188 446 -189 116 -1 179 14 289 66 113 54 230 168 281 275 l35
72 463 1 463 0 24 25 c32 31 32 69 0 100 l-24 25 -443 0 -444 0 0 75 0 75 916
0 915 0 0 -75 0 -75 -323 0 -323 0 -24 -25 c-14 -13 -25 -36 -25 -50 0 -14 11
-37 25 -50 l24 -25 340 0 340 0 37 -72 c57 -110 174 -223 284 -276 111 -52
174 -67 290 -66 181 1 316 58 445 188 54 55 93 104 118 153 l38 72 209 3 c192
3 211 5 236 24 63 46 69 64 69 199 0 137 -8 158 -73 200 l-31 20 -1 325 c0
179 -5 356 -10 394 -27 184 -163 333 -347 381 -46 12 -136 15 -468 15 -314 0
-415 3 -427 13 -8 6 -108 162 -222 345 -210 336 -234 367 -305 391 -47 15
-2411 14 -2460 -2z m1459 -997 l0 -860 -372 0 -373 1 -35 72 c-25 54 -55 92
-115 152 -131 131 -271 190 -450 189 -189 -1 -319 -56 -455 -193 -60 -61 -95
-106 -120 -156 l-35 -70 -3 85 c-2 47 -2 220 0 385 l3 300 255 460 c140 253
263 468 273 477 16 17 63 18 722 18 l705 0 0 -860z m972 848 c16 -14 58 -72
58 -82 0 -3 -146 -6 -324 -8 -310 -3 -326 -4 -352 -24 -15 -11 -37 -33 -48
-48 -20 -26 -21 -41 -21 -254 0 -256 4 -271 75 -311 37 -21 49 -21 534 -21
l496 0 0 -74 c0 -69 2 -76 26 -95 34 -27 57 -26 90 2 23 20 27 33 32 95 l5 72
407 0 c450 0 472 -2 552 -63 24 -18 58 -57 76 -87 l33 -55 -78 -5 c-95 -7
-147 -31 -188 -89 -30 -42 -30 -44 -33 -196 -3 -137 -1 -157 16 -192 43 -83
100 -113 217 -113 l85 0 0 -80 0 -80 -129 0 -130 0 -38 73 c-57 110 -174 223
-283 275 -111 52 -174 67 -290 66 -82 -1 -117 -6 -201 -30 -14 -4 -17 8 -21
73 -4 64 -9 80 -28 95 -29 24 -75 23 -100 -2 -18 -18 -20 -33 -20 -131 l0
-112 -78 -81 c-48 -51 -91 -108 -115 -153 l-38 -73 -505 0 -504 0 0 860 0 860
403 0 c308 0 407 -3 419 -12z m254 -395 c54 -87 104 -168 112 -180 l14 -23
-461 0 -461 0 0 173 c0 96 3 177 7 180 3 4 160 7 349 7 l343 0 97 -157z m1404
-858 l0 -145 -73 0 c-43 0 -78 5 -85 12 -8 8 -12 51 -12 129 0 145 3 149 101
149 l69 0 0 -145z m-3872 -200 c202 -48 357 -215 381 -413 45 -364 -301 -650
-645 -532 -160 55 -288 201 -323 368 -71 343 248 657 587 577z m3110 0 c202
-48 350 -207 383 -411 48 -298 -221 -587 -522 -560 -199 18 -362 144 -430 332
-31 83 -31 235 0 318 87 240 331 377 569 321z m-3858 -480 l0 -75 -45 0 -45 0
0 75 0 75 45 0 45 0 0 -75z m4730 0 l0 -75 -167 0 -168 0 0 75 0 75 168 0 167
0 0 -75z"/>
<path d="M925 3666 c-44 -20 -53 -32 -179 -261 -127 -229 -135 -258 -96 -323
36 -58 59 -62 357 -62 309 0 321 3 361 81 22 42 23 52 20 261 -3 201 -5 219
-24 244 -48 65 -60 69 -242 71 -124 2 -175 -1 -197 -11z m315 -316 l0 -180
-226 0 -226 0 37 68 c20 37 65 118 98 179 l62 113 128 0 127 0 0 -180z"/>
<path d="M1593 3659 c-30 -15 -48 -33 -62 -63 -19 -38 -21 -61 -21 -250 0
-231 6 -257 64 -299 30 -21 40 -22 233 -22 187 0 203 1 229 20 59 44 64 69 64
304 0 210 -1 215 -25 256 -38 66 -72 75 -273 75 -149 0 -172 -2 -209 -21z
m357 -309 l0 -180 -145 0 -145 0 0 180 0 180 145 0 145 0 0 -180z"/>
<path d="M617 2789 c-35 -27 -37 -79 -5 -109 21 -20 31 -20 730 -20 l709 0 24
25 c30 29 32 64 6 96 l-19 24 -710 3 c-706 2 -709 2 -735 -19z"/>
<path d="M768 2197 c-189 -70 -293 -249 -254 -436 25 -119 94 -208 208 -268
48 -25 62 -28 158 -28 99 0 109 2 172 33 77 38 134 97 175 181 25 50 28 67 28
156 0 87 -3 107 -26 155 -39 82 -99 144 -177 182 -58 29 -78 33 -157 36 -57 1
-103 -3 -127 -11z m244 -174 c58 -42 98 -118 98 -188 0 -194 -228 -296 -378
-170 -102 86 -102 254 0 340 53 45 86 56 165 52 62 -2 77 -7 115 -34z"/>
<path d="M3859 2187 c-99 -41 -156 -94 -207 -190 -25 -48 -27 -61 -27 -162 0
-106 1 -112 34 -173 41 -75 103 -135 179 -170 50 -24 70 -27 157 -27 87 0 107
3 157 27 79 37 142 98 181 177 30 61 32 73 32 166 0 93 -2 105 -32 166 -39 79
-102 140 -181 177 -82 39 -213 42 -293 9z m259 -160 c23 -15 54 -46 69 -69 25
-37 28 -51 28 -123 0 -72 -3 -86 -28 -123 -15 -23 -46 -54 -69 -69 -37 -25
-51 -28 -123 -28 -72 0 -86 3 -123 28 -65 42 -96 97 -100 176 -6 103 35 177
121 220 62 32 168 26 225 -12z"/>
</g>
</svg>
